<?xml version="1.0" encoding="utf-8"?>
<!-- Generator: Adobe Illustrator 16.0.0, SVG Export Plug-In . SVG Version: 6.00 Build 0)  -->
<!DOCTYPE svg PUBLIC "-//W3C//DTD SVG 1.1//EN" "http://www.w3.org/Graphics/SVG/1.1/DTD/svg11.dtd">
<svg version="1.1" id="Layer_1" xmlns="http://www.w3.org/2000/svg" xmlns:xlink="http://www.w3.org/1999/xlink" x="0px" y="0px"
	 width="36px" height="36px" viewBox="0 0 36 36" enable-background="new 0 0 36 36" xml:space="preserve">
<g>
	<defs>
		<rect id="SVGID_1_" width="36" height="36"/>
	</defs>
	<clipPath id="SVGID_2_">
		<use xlink:href="#SVGID_1_"  overflow="visible"/>
	</clipPath>
	<g clip-path="url(#SVGID_2_)">
		<defs>
			<rect id="SVGID_3_" width="36" height="36"/>
		</defs>
		<clipPath id="SVGID_4_">
			<use xlink:href="#SVGID_3_"  overflow="visible"/>
		</clipPath>
		<path clip-path="url(#SVGID_4_)" fill="#231F20" d="M25.001,4c1.655,0,2.997,1.344,2.997,3c0,1.657-1.342,3-2.997,3
			c-1.658,0-3.003-1.343-3.003-3C21.998,5.345,23.343,4,25.001,4 M15.67,8.455c3.807,0,8.853,1.557,11.281,8.978L31.001,16l1,3l-6,2
			l-3-5l-3.003,3.5l4.003,5.5l-1,7h-4l1-6l-3.502-4l-2.498,3l-8,3l-2-3l7-3l5.937-9.951c0,0-1.337-0.641-2.5-0.641
			c-0.537,0-1.007,0.07-1.396,0.21l-3.955,1.28l-0.959-2.601l4.59-1.5C12.729,8.795,13.947,8.455,15.67,8.455 M25.001,2
			c-2.759,0-5.003,2.243-5.003,5c0,0.039,0,0.078,0.003,0.117c-1.604-0.517-3.125-0.663-4.331-0.663
			c-2.029,0-3.451,0.407-3.512,0.424c-0.021,0.006-0.041,0.013-0.062,0.019l-4.59,1.5c-0.516,0.169-0.942,0.54-1.178,1.03
			C6.09,9.917,6.063,10.48,6.25,10.991l0.959,2.601C7.506,14.396,8.271,14.9,9.086,14.9c0.203,0,0.41-0.032,0.615-0.098l3.955-1.28
			c0.02-0.007,0.041-0.014,0.061-0.021c0.01-0.003,0.019-0.007,0.033-0.011l-4.135,6.927l-6.404,2.743
			c-0.545,0.235-0.959,0.699-1.129,1.27c-0.17,0.568-0.076,1.185,0.254,1.679l2,3c0.379,0.569,1.01,0.892,1.664,0.892
			c0.234,0,0.473-0.042,0.701-0.129l8-3c0.326-0.121,0.613-0.325,0.834-0.592l1-1.2l1.336,1.524l-0.844,5.067
			c-0.097,0.579,0.067,1.173,0.446,1.621c0.381,0.448,0.938,0.708,1.527,0.708h4c0.993,0,1.838-0.732,1.979-1.719l1-7
			c0.074-0.515-0.055-1.038-0.362-1.459l-1.01-1.386c0.375,0.361,0.875,0.563,1.394,0.563c0.211,0,0.424-0.034,0.633-0.104l6-2
			c1.047-0.35,1.612-1.482,1.263-2.53l-1-3c-0.169-0.509-0.537-0.929-1.019-1.164C31.603,14.068,31.302,14,31.001,14
			c-0.228,0-0.451,0.038-0.669,0.114l-2.209,0.782c-0.518-1.185-1.106-2.207-1.745-3.089c2.088-0.599,3.62-2.527,3.62-4.807
			C29.998,4.244,27.757,2,25.001,2"/>
	</g>
</g>
</svg>
