<?xml version="1.0" encoding="utf-8"?>
<!-- Generator: Adobe Illustrator 18.0.0, SVG Export Plug-In . SVG Version: 6.00 Build 0)  -->
<!DOCTYPE svg PUBLIC "-//W3C//DTD SVG 1.1//EN" "http://www.w3.org/Graphics/SVG/1.1/DTD/svg11.dtd">
<svg version="1.1" id="Layer_3" xmlns="http://www.w3.org/2000/svg" xmlns:xlink="http://www.w3.org/1999/xlink" x="0px" y="0px"
	 viewBox="0 0 64 64" enable-background="new 0 0 64 64" xml:space="preserve">
<g>
	<path d="M31.9,60L31.9,60c-1.5,0-3-0.4-4.1-1C26.7,58.2,0,40.9,0,24C0,14.8,7.8,4,17.8,4c5.7,0,10.9,2.6,14.3,6.9
		C35.3,6.6,40.6,4,46.3,4C56.3,4,64,14.8,64,24c0,16.9-26.7,34.1-27.9,34.9C35,59.6,33.5,60,31.9,60z M17.8,8C10.1,8,4,16.8,4,24
		c0,14.7,25.7,31.4,26,31.5c0.9,0.6,3,0.6,4-0.1c0.2-0.2,26-16.8,26-31.5c0-7.3-6.1-16-13.7-16c-5.3,0-10.2,3-12.5,7.6
		c-0.7,1.4-2.9,1.4-3.6,0C28,11,23.1,8,17.8,8z"/>
</g>
</svg>
