<?xml version="1.0" encoding="utf-8"?>
<!-- Generator: Adobe Illustrator 18.0.0, SVG Export Plug-In . SVG Version: 6.00 Build 0)  -->
<!DOCTYPE svg PUBLIC "-//W3C//DTD SVG 1.1//EN" "http://www.w3.org/Graphics/SVG/1.1/DTD/svg11.dtd">
<svg version="1.1" xmlns="http://www.w3.org/2000/svg" xmlns:xlink="http://www.w3.org/1999/xlink" x="0px" y="0px"
	 viewBox="0 0 32 32" enable-background="new 0 0 32 32" xml:space="preserve">
<g id="Layer_3">
	<g>
		<path d="M31,18h-8.6l-2.8-5l-2.8,5h-0.2L13,9.4L9.5,18H1c-0.6,0-1,0.4-1,1s0.4,1,1,1h9.8l2.2-5.4l2.2,5.4h2.7l1.7-3l1.7,3H31
			c0.6,0,1-0.4,1-1S31.6,18,31,18z"/>
		<path d="M3.1,16C2.4,14.7,2,13.3,2,12c0-3.6,3.1-8,6.9-8c2.7,0,5.1,1.5,6.2,3.8c0.3,0.7,1.5,0.7,1.8,0C18,5.5,20.5,4,23.1,4
			c3.8,0,6.9,4.4,6.9,8c0,1.3-0.4,2.7-1.1,4h2.2c0.6-1.3,0.9-2.7,0.9-4c0-4.6-3.9-10-8.9-10c-2.8,0-5.5,1.3-7.1,3.5
			C14.3,3.3,11.7,2,8.9,2C3.9,2,0,7.4,0,12c0,1.3,0.3,2.7,0.9,4H3.1z"/>
		<path d="M17,27.8c-0.5,0.3-1.6,0.3-2,0c-0.1,0-3.8-2.4-7.2-5.8H5c3.9,4.2,8.6,7.3,8.9,7.5c0.6,0.3,1.3,0.5,2,0.5
			c0.8,0,1.5-0.2,2.1-0.6c0.3-0.2,5-3.3,8.9-7.4h-2.8C20.8,25.3,17.1,27.7,17,27.8z"/>
	</g>
</g>
<g id="nyt_x5F_exporter_x5F_info" display="none">
</g>
</svg>
