<?xml version="1.0" encoding="utf-8"?>
<!-- Generator: Adobe Illustrator 18.0.0, SVG Export Plug-In . SVG Version: 6.00 Build 0)  -->
<!DOCTYPE svg PUBLIC "-//W3C//DTD SVG 1.1//EN" "http://www.w3.org/Graphics/SVG/1.1/DTD/svg11.dtd">
<svg version="1.1" id="Layer_3" xmlns="http://www.w3.org/2000/svg" xmlns:xlink="http://www.w3.org/1999/xlink" x="0px" y="0px"
	 viewBox="0 0 64 64" enable-background="new 0 0 64 64" xml:space="preserve">
<path d="M62.7,32.1L51.2,8C48.9,3.1,44,0,38.6,0c-2.1,0-4.1,0.5-6,1.3c-4.7,2.2-7.6,6.8-8,11.7C22.1,10,18.3,8,14,8
	C6.3,8,0,14.4,0,22.3v27.4C0,57.6,6.3,64,14,64s14-6.4,14-14.3V24.4l9.3,19.7c2.3,4.9,7.3,8,12.7,8c2.1,0,4.1-0.5,6-1.3
	C63,47.4,66,39.1,62.7,32.1z M24,49.7C24,55.4,19.5,60,14,60S4,55.4,4,49.7V36h20V49.7z M24,34H4V22.3C4,16.6,8.5,12,14,12
	s10,4.6,10,10.3V34z M29.5,18.3c-2.4-5-0.2-11,4.8-13.3c1.4-0.7,2.8-1,4.3-1c3.7,0,7.3,2.1,9,5.7l5.5,11.6l-18.3,8.2L29.5,18.3z
	 M54.3,47.1c-1.4,0.7-2.8,1-4.3,1c-3.7,0-7.3-2.1-9-5.7l-5.2-11.1L54,23.1l-0.4-0.9L59,33.8C61.4,38.8,59.3,44.8,54.3,47.1z"/>
</svg>
