<?xml version="1.0" encoding="utf-8"?>
<!-- Generator: Adobe Illustrator 18.0.0, SVG Export Plug-In . SVG Version: 6.00 Build 0)  -->
<!DOCTYPE svg PUBLIC "-//W3C//DTD SVG 1.1//EN" "http://www.w3.org/Graphics/SVG/1.1/DTD/svg11.dtd">
<svg version="1.1" xmlns="http://www.w3.org/2000/svg" xmlns:xlink="http://www.w3.org/1999/xlink" x="0px" y="0px"
	 viewBox="0 0 32 32" enable-background="new 0 0 32 32" xml:space="preserve">
<g id="Layer_3">
	<g>
		<path d="M26,0c-3.3,0-6,3.6-6,8c0,3,1.2,5.5,3,6.9V29c0,1.5,1.1,2.8,2.6,3c0.1,0,0.2,0,0.3,0c0,0,0.1,0,0.1,0l0,0l0,0
			c0.1,0,0.3,0,0.4,0c1.5-0.2,2.6-1.4,2.6-3V14.9c1.8-1.4,3-3.9,3-6.9C32,3.6,29.3,0,26,0z M27.1,13.7L27,13.8V29c0,0.5-0.4,1-1,1
			s-1-0.5-1-1V13.8l-0.1-0.1C23.2,12.9,22,10.6,22,8c0-3.3,1.8-6,4-6s4,2.7,4,6C30,10.6,28.8,12.9,27.1,13.7z"/>
		<path d="M9,0C8.4,0,8,0.4,8,1v7H6V1c0-0.6-0.4-1-1-1C4.4,0,4,0.4,4,1v7H2V1c0-0.6-0.4-1-1-1C0.4,0,0,0.4,0,1v11c0,1.1,0.9,2,2,2h0
			v15c0,1.5,1.1,2.8,2.6,3c0.1,0,0.2,0,0.3,0c0,0,0.1,0,0.1,0l0,0l0,0c0.1,0,0.3,0,0.4,0C6.9,31.8,8,30.5,8,29V14h0c1.1,0,2-0.9,2-2
			V1C10,0.4,9.6,0,9,0z M8,12H6v17c0,0.5-0.4,1-1,1s-1-0.5-1-1V12H2v-2h6V12z"/>
		<path d="M15,0c-1.7,0-3,1.3-3,3v15c0,1.1,0.9,2,2,2h2v11c0,0.5,0.4,1,1,1s1-0.5,1-1V3C18,1.3,16.7,0,15,0z M16,18h-2V3
			c0-0.6,0.4-1,1-1s1,0.4,1,1L16,18z"/>
	</g>
</g>
<g id="nyt_x5F_exporter_x5F_info" display="none">
</g>
</svg>
