<?xml version="1.0" encoding="utf-8"?>
<!-- Generator: Adobe Illustrator 18.0.0, SVG Export Plug-In . SVG Version: 6.00 Build 0)  -->
<!DOCTYPE svg PUBLIC "-//W3C//DTD SVG 1.1//EN" "http://www.w3.org/Graphics/SVG/1.1/DTD/svg11.dtd">
<svg version="1.1" xmlns="http://www.w3.org/2000/svg" xmlns:xlink="http://www.w3.org/1999/xlink" x="0px" y="0px"
	 viewBox="0 0 32 32" enable-background="new 0 0 32 32" xml:space="preserve">
<g id="Layer_3">
	<g>
		<path d="M26,0H6C2.7,0,0,2.7,0,6v20c0,3.3,2.7,6,6,6h20c3.3,0,6-2.7,6-6V6C32,2.7,29.3,0,26,0z M30,26c0,2.2-1.8,4-4,4H6
			c-2.2,0-4-1.8-4-4V6c0-2.2,1.8-4,4-4h20c2.2,0,4,1.8,4,4V26z"/>
		<path d="M16,4C11.8,4,8,6.1,5.7,9.5c-0.2,0.3-0.2,0.7-0.1,1l1.8,3.9C7.6,14.8,8,15,8.3,15h15.3c0.4,0,0.7-0.2,0.9-0.6l1.8-3.9
			c0.1-0.3,0.1-0.7-0.1-1C24,6.1,20.2,4,16,4z M23.7,14H19V9.8c0-0.2-0.3-0.3-0.5-0.1L15.7,14H8.3l-1.8-3.9C8.5,7,12,5,16,5
			s7.5,2,9.5,5.1L23.7,14z"/>
		<path d="M24.5,22h-17C7.2,22,7,22.2,7,22.5C7,22.8,7.2,23,7.5,23h17c0.3,0,0.5-0.2,0.5-0.5C25,22.2,24.8,22,24.5,22z"/>
		<path d="M24.5,19h-17C7.2,19,7,19.2,7,19.5C7,19.8,7.2,20,7.5,20h17c0.3,0,0.5-0.2,0.5-0.5C25,19.2,24.8,19,24.5,19z"/>
		<path d="M24.5,25h-17C7.2,25,7,25.2,7,25.5C7,25.8,7.2,26,7.5,26h17c0.3,0,0.5-0.2,0.5-0.5C25,25.2,24.8,25,24.5,25z"/>
	</g>
</g>
<g id="nyt_x5F_exporter_x5F_info" display="none">
	<text transform="matrix(1 0 0 1 -478 -24)" display="inline"><tspan x="0" y="0" font-family="'MyriadPro-Regular'" font-size="12">&lt;nyt_prefs&gt;</tspan><tspan x="0" y="14.4" font-family="'MyriadPro-Regular'" font-size="12">  &lt;nyt_prefix&gt;&lt;/nyt_prefix&gt;</tspan><tspan x="0" y="28.8" font-family="'MyriadPro-Regular'" font-size="12">  &lt;nyt_suffix&gt;&lt;/nyt_suffix&gt;</tspan><tspan x="0" y="43.2" font-family="'MyriadPro-Regular'" font-size="12">  &lt;nyt_base_path&gt;~/Dropbox/Work/Symbolicons/Icon%20Sets/Symbolicons%20Air/png/black/512px&lt;/nyt_base_path&gt;</tspan><tspan x="0" y="57.6" font-family="'MyriadPro-Regular'" font-size="12">  &lt;nyt_scaling&gt;1600&lt;/nyt_scaling&gt;</tspan><tspan x="0" y="72" font-family="'MyriadPro-Regular'" font-size="12">  &lt;nyt_transparency&gt;true&lt;/nyt_transparency&gt;</tspan><tspan x="0" y="86.4" font-family="'MyriadPro-Regular'" font-size="12">  &lt;nyt_format&gt;PNG 24&lt;/nyt_format&gt;</tspan><tspan x="0" y="100.8" font-family="'MyriadPro-Regular'" font-size="12">  &lt;nyt_export_code&gt;artboards&lt;/nyt_export_code&gt;</tspan><tspan x="0" y="115.2" font-family="'MyriadPro-Regular'" font-size="12">&lt;/nyt_prefs&gt;</tspan></text>
</g>
</svg>
